<svg xmlns="http://www.w3.org/2000/svg" fill-rule="evenodd" clip-rule="evenodd" image-rendering="optimizeQuality" shape-rendering="geometricPrecision" text-rendering="geometricPrecision" viewBox="0 0 32 32"><defs><style>.fil1{fill:#fff}</style><radialGradient id="id0" cx=".64" cy="28.8" r="14.79" fx=".64" fy="28.8" gradientTransform="matrix(.15123 -2.84765 2.45265 .12686 -70 27)" gradientUnits="userSpaceOnUse"><stop offset="0" stop-color="#fed576"/><stop offset=".258824" stop-color="#f47133"/><stop offset=".611765" stop-color="#bc3081"/><stop offset="1" stop-color="#4c63d2"/></radialGradient></defs><g id="Слой_x0020_1"><g id="_1885635152160"><path fill="url(#id0)" d="M0 15.59v.87C.22 24.73 6.89 31.38 14.82 32h2.44c7.97-.63 14.52-7.33 14.74-15.55v-.86C31.78 7.23 25 .44 16.84.02 8.05-.43.24 6.62 0 15.59z"/><path d="M16.07 8.04c2.55 0 2.86 0 3.86.05.94.04 1.44.2 1.77.33.45.18.77.39 1.1.72.33.34.54.67.72 1.12.12.35.28.86.33 1.81.04 1.02.05 1.33.05 3.92 0 2.6-.01 2.9-.05 3.93-.04.95-.2 1.46-.33 1.8-.18.46-.38.78-.72 1.12-.33.34-.65.55-1.1.72-.33.14-.84.29-1.77.33-1 .05-1.31.06-3.86.06-2.54 0-2.85-.01-3.86-.06-.93-.04-1.43-.2-1.77-.33-.44-.17-.76-.38-1.09-.72-.33-.34-.54-.66-.72-1.12-.13-.34-.28-.85-.33-1.8-.04-1.03-.05-1.33-.05-3.93 0-2.59.01-2.9.05-3.92.04-.95.2-1.46.33-1.81.18-.45.38-.78.72-1.12.33-.33.65-.54 1.09-.72.34-.13.85-.29 1.77-.33 1.01-.04 1.32-.05 3.86-.05zm0-1.75c-2.59 0-2.92.01-3.93.06-1.01.05-1.71.21-2.32.45-.63.25-1.16.58-1.69 1.12-.53.54-.86 1.09-1.1 1.73-.24.61-.4 1.32-.45 2.36-.04 1.03-.05 1.36-.05 4 0 2.64.01 2.97.05 4 .05 1.04.21 1.74.45 2.36.24.64.57 1.18 1.1 1.72.53.54 1.06.88 1.69 1.13.61.24 1.31.4 2.32.45 1.02.05 1.34.06 3.93.06s2.92-.01 3.94-.06c1.01-.05 1.71-.21 2.32-.45.63-.25 1.16-.59 1.69-1.13.53-.54.86-1.08 1.1-1.72.23-.62.4-1.32.45-2.36.04-1.03.05-1.36.05-4 0-2.64-.02-2.97-.05-4-.05-1.04-.22-1.74-.45-2.36-.24-.64-.57-1.19-1.1-1.73-.54-.54-1.06-.87-1.69-1.12-.61-.24-1.31-.4-2.32-.45-1.02-.05-1.35-.06-3.94-.06z" class="fil1"/><path d="M16.07 11.01c-2.71 0-4.9 2.23-4.9 4.99 0 2.76 2.2 4.99 4.9 4.99 2.71 0 4.91-2.23 4.91-4.99 0-2.76-2.2-4.99-4.91-4.99zm0 8.23c-1.75 0-3.18-1.45-3.18-3.24 0-1.79 1.43-3.24 3.18-3.24 1.76 0 3.19 1.45 3.19 3.24 0 1.79-1.43 3.24-3.19 3.24z" class="fil1"/><ellipse cx="21.17" cy="10.82" class="fil1" rx="1.14" ry="1.16"/></g></g></svg>