<svg id="Layer_1" data-name="Layer 1" xmlns="http://www.w3.org/2000/svg" xmlns:xlink="http://www.w3.org/1999/xlink" width="150" height="45" viewBox="0 0 150 45">
  <defs>
    <style>
      .cls-1 {
        fill: #a7a6a6;
      }

      .cls-10, .cls-2, .cls-9 {
        fill: #fff;
      }

      .cls-3 {
        fill: url(#linear-gradient);
      }

      .cls-4 {
        fill: url(#linear-gradient-2);
      }

      .cls-5 {
        fill: url(#linear-gradient-3);
      }

      .cls-6 {
        fill: url(#linear-gradient-4);
      }

      .cls-7, .cls-8 {
        fill: #010101;
      }

      .cls-7 {
        opacity: 0.2;
      }

      .cls-7, .cls-8, .cls-9 {
        isolation: isolate;
      }

      .cls-8 {
        opacity: 0.12;
      }

      .cls-9 {
        opacity: 0.25;
      }

      .cls-10 {
        stroke: #fff;
        stroke-miterlimit: 10;
        stroke-width: 0.25px;
      }
    </style>
    <linearGradient id="linear-gradient" x1="24.38" y1="37.2" x2="5.5" y2="18.32" gradientTransform="matrix(1, 0, 0, -1, 0, 47)" gradientUnits="userSpaceOnUse">
      <stop offset="0" stop-color="#4998d3"/>
      <stop offset="0.01" stop-color="#4a99d3"/>
      <stop offset="0.26" stop-color="#42baeb"/>
      <stop offset="0.51" stop-color="#41c7f2"/>
      <stop offset="0.76" stop-color="#56c9e9"/>
      <stop offset="1" stop-color="#5bcae8"/>
    </linearGradient>
    <linearGradient id="linear-gradient-2" x1="37.59" y1="24.5" x2="10.71" y2="24.5" gradientTransform="matrix(1, 0, 0, -1, 0, 47)" gradientUnits="userSpaceOnUse">
      <stop offset="0" stop-color="#fee000"/>
      <stop offset="0.41" stop-color="#febd11"/>
      <stop offset="0.78" stop-color="#faa51a"/>
      <stop offset="1" stop-color="#f99c1c"/>
    </linearGradient>
    <linearGradient id="linear-gradient-3" x1="27.6" y1="21.93" x2="2.15" y2="-3.51" gradientTransform="matrix(1, 0, 0, -1, 0, 47)" gradientUnits="userSpaceOnUse">
      <stop offset="0" stop-color="#ef4049"/>
      <stop offset="1" stop-color="#c31e63"/>
    </linearGradient>
    <linearGradient id="linear-gradient-4" x1="8" y1="46.66" x2="19.36" y2="35.3" gradientTransform="matrix(1, 0, 0, -1, 0, 47)" gradientUnits="userSpaceOnUse">
      <stop offset="0" stop-color="#32a072"/>
      <stop offset="0.07" stop-color="#2da771"/>
      <stop offset="0.48" stop-color="#4bba71"/>
      <stop offset="0.8" stop-color="#5ebd6b"/>
      <stop offset="1" stop-color="#66be69"/>
    </linearGradient>
  </defs>
  <path d="M144.44,45H5.56A5.61,5.61,0,0,1,0,39.37V5.62A5.61,5.61,0,0,1,5.56,0H144.44A5.61,5.61,0,0,1,150,5.62V39.37A5.61,5.61,0,0,1,144.44,45Z"/>
  <path class="cls-1" d="M144.44.9a4.7,4.7,0,0,1,4.67,4.73V39.38a4.7,4.7,0,0,1-4.67,4.72H5.56A4.7,4.7,0,0,1,.89,39.38V5.63A4.7,4.7,0,0,1,5.56.9H144.44m0-.9H5.56A5.61,5.61,0,0,0,0,5.63V39.38A5.61,5.61,0,0,0,5.56,45H144.44A5.61,5.61,0,0,0,150,39.38V5.63A5.61,5.61,0,0,0,144.44,0Z"/>
  <path class="cls-2" d="M75.71,24.47a4.79,4.79,0,1,0,4.74,4.79A4.69,4.69,0,0,0,75.71,24.47Zm0,7.69A2.75,2.75,0,0,1,73,29.26a2.67,2.67,0,1,1,5.33,0A2.75,2.75,0,0,1,75.71,32.16ZM65.36,24.47a4.79,4.79,0,1,0,4.74,4.79A4.69,4.69,0,0,0,65.36,24.47Zm0,7.69a2.76,2.76,0,0,1-2.67-2.9,2.68,2.68,0,1,1,5.34,0A2.76,2.76,0,0,1,65.36,32.16ZM53.05,25.94v2h4.8a4.25,4.25,0,0,1-1.1,2.55A4.85,4.85,0,0,1,53.05,32a5.4,5.4,0,0,1,0-10.8,5,5,0,0,1,3.61,1.45l1.42-1.43a7,7,0,0,0-5-2.05,7.43,7.43,0,1,0,0,14.86A6.67,6.67,0,0,0,58.17,32a6.79,6.79,0,0,0,1.73-4.75,6.89,6.89,0,0,0-.1-1.27Zm50.34,1.58a4.4,4.4,0,0,0-4-3.05,4.52,4.52,0,0,0-4.46,4.79A4.65,4.65,0,0,0,99.58,34a4.7,4.7,0,0,0,3.94-2.12l-1.61-1.09a2.71,2.71,0,0,1-2.33,1.33,2.39,2.39,0,0,1-2.29-1.45l6.32-2.65ZM97,29.11a2.6,2.6,0,0,1,2.47-2.79,1.83,1.83,0,0,1,1.75,1Zm-5.14,4.64h2.08V19.69H91.81Zm-3.4-8.21h-.07a3.27,3.27,0,0,0-2.49-1.07,4.79,4.79,0,0,0,0,9.57A3.21,3.21,0,0,0,88.34,33h.07v.69c0,1.83-1,2.81-2.53,2.81a2.62,2.62,0,0,1-2.38-1.7l-1.8.76a4.48,4.48,0,0,0,4.18,2.83c2.44,0,4.5-1.45,4.5-5V24.76h-2ZM86,32.16a2.74,2.74,0,0,1-2.63-2.89A2.75,2.75,0,0,1,86,26.36a2.68,2.68,0,0,1,2.52,2.91A2.67,2.67,0,0,1,86,32.16Zm27.09-12.47h-5V33.75h2.07V28.42h2.9a4.37,4.37,0,1,0,0-8.73Zm0,6.77h-3V21.64h3a2.41,2.41,0,1,1,0,4.82Zm12.81-2a3.89,3.89,0,0,0-3.7,2.16l1.85.78a2,2,0,0,1,1.89-1,2,2,0,0,1,2.18,1.81v.15a4.53,4.53,0,0,0-2.16-.54c-2,0-4,1.1-4,3.16a3.23,3.23,0,0,0,3.45,3.1,2.92,2.92,0,0,0,2.65-1.38h.07v1.09h2v-5.4C130.2,25.84,128.36,24.44,126,24.44Zm-.25,7.71c-.68,0-1.62-.34-1.62-1.19,0-1.09,1.18-1.5,2.2-1.5a3.65,3.65,0,0,1,1.89.47A2.52,2.52,0,0,1,125.73,32.15Zm11.76-7.4-2.37,6.1H135l-2.46-6.1h-2.24l3.7,8.52L131.93,38h2.17l5.7-13.26Zm-18.67,9h2.07V19.69h-2.07Z"/>
  <g>
    <path class="cls-3" d="M11.59,8.48a2.28,2.28,0,0,0-.51,1.58V34.94a2.27,2.27,0,0,0,.51,1.58l.09.08L25.44,22.67v-.33L11.68,8.4Z"/>
    <path class="cls-4" d="M30,27.31l-4.59-4.64v-.33L30,17.69l.11.06,5.43,3.13c1.55.89,1.55,2.35,0,3.25l-5.43,3.12Z"/>
    <path class="cls-5" d="M30.14,27.25l-4.7-4.75-13.85,14a1.79,1.79,0,0,0,2.31.07l16.24-9.34"/>
    <path class="cls-6" d="M30.14,17.75,13.9,8.41a1.79,1.79,0,0,0-2.31.07l13.85,14Z"/>
    <g>
      <path class="cls-7" d="M30,27.15,13.9,36.43a1.83,1.83,0,0,1-2.22,0h0l-.09.08h0l.09.08h0a1.81,1.81,0,0,0,2.22,0l16.24-9.34Z"/>
      <path class="cls-8" d="M11.59,36.36a2.3,2.3,0,0,1-.51-1.58v.16a2.27,2.27,0,0,0,.51,1.58l.09-.08Z"/>
    </g>
    <path class="cls-8" d="M35.57,24,30,27.15l.11.1,5.43-3.12a2,2,0,0,0,1.17-1.63h0A2.09,2.09,0,0,1,35.57,24Z"/>
    <path class="cls-9" d="M13.9,8.58,35.57,21a2.11,2.11,0,0,1,1.17,1.46h0a2,2,0,0,0-1.17-1.62L13.9,8.41c-1.55-.89-2.82-.15-2.82,1.65v.17C11.08,8.42,12.35,7.68,13.9,8.58Z"/>
  </g>
  <g>
    <path class="cls-10" d="M46.46,16.17H45.6V13.82h.69a3.31,3.31,0,0,0,.88-2.67V7.69h4.67v6.13h.78v2.35h-.85V14.68H46.46Zm1.61-5a4.58,4.58,0,0,1-.66,2.67h3.53V8.55H48.07Z"/>
    <path class="cls-10" d="M59.63,13.78a3.63,3.63,0,0,1-5.13,0,3.61,3.61,0,0,1-1-2.59,3.62,3.62,0,0,1,1-2.6,3.48,3.48,0,0,1,2.57-1.06A3.44,3.44,0,0,1,59.63,8.6a3.57,3.57,0,0,1,1,2.59A3.57,3.57,0,0,1,59.63,13.78Zm-4.46-.59a2.68,2.68,0,0,0,3.8,0,2.71,2.71,0,0,0,.78-2,2.72,2.72,0,0,0-.78-2,2.68,2.68,0,0,0-3.8,0,2.72,2.72,0,0,0-.78,2A2.71,2.71,0,0,0,55.17,13.19Z"/>
    <path class="cls-10" d="M65.19,14.84a3.59,3.59,0,0,1-3.64-3.65A3.54,3.54,0,0,1,62.6,8.58a3.5,3.5,0,0,1,2.59-1,3.19,3.19,0,0,1,2.56,1.15l-.62.6a2.37,2.37,0,0,0-1.94-.89,2.62,2.62,0,0,0-1.93.78,2.67,2.67,0,0,0-.79,2,2.7,2.7,0,0,0,.79,2,2.65,2.65,0,0,0,1.93.77,2.73,2.73,0,0,0,2.14-1l.63.63a3.41,3.41,0,0,1-1.2.91A3.6,3.6,0,0,1,65.19,14.84Z"/>
    <path class="cls-10" d="M71.59,14.68h-.9V8.55h-2V7.69h4.81v.86h-2Z"/>
    <path class="cls-10" d="M79.72,7.69l-2.65,5.9a1.77,1.77,0,0,1-1.63,1.25,1.65,1.65,0,0,1-.69-.16l.23-.83a.9.9,0,0,0,.47.13.81.81,0,0,0,.48-.12,1,1,0,0,0,.32-.45l.25-.55L74.15,7.69h1.06l1.72,4h0l1.69-4Z"/>
    <path class="cls-10" d="M80.73,14.68v-7h5.06v7h-.9V8.55H81.63v6.13Z"/>
    <path class="cls-10" d="M87.39,14.68v-7h.9v3h3.5v-3h.9v7h-.9V11.53h-3.5v3.15Z"/>
    <path class="cls-10" d="M100,13.78a3.63,3.63,0,0,1-5.13,0,3.57,3.57,0,0,1-1-2.59,3.58,3.58,0,0,1,1-2.6,3.62,3.62,0,0,1,5.13,0,3.61,3.61,0,0,1,1,2.59A3.57,3.57,0,0,1,100,13.78Zm-4.46-.59a2.67,2.67,0,0,0,3.79,0,2.71,2.71,0,0,0,.78-2,2.72,2.72,0,0,0-.78-2,2.67,2.67,0,0,0-3.79,0,2.72,2.72,0,0,0-.78,2A2.71,2.71,0,0,0,95.55,13.19Z"/>
    <path class="cls-10" d="M104.71,14.68v-7h2.53a2,2,0,0,1,1.42.54,1.74,1.74,0,0,1,.61,1.36,1.52,1.52,0,0,1-.26.88,1.68,1.68,0,0,1-.69.58v0a1.84,1.84,0,0,1,.85.6,1.6,1.6,0,0,1,.33,1,1.85,1.85,0,0,1-.63,1.43,2.19,2.19,0,0,1-1.49.56Zm.9-4h1.63a1.05,1.05,0,0,0,.82-.34,1.09,1.09,0,0,0,.31-.74,1.07,1.07,0,0,0-.3-.73,1,1,0,0,0-.79-.33h-1.67Zm0,3.13h1.81a1.09,1.09,0,0,0,.84-.36,1.17,1.17,0,0,0,.32-.79,1.14,1.14,0,0,0-.33-.79,1.15,1.15,0,0,0-.87-.35h-1.77Z"/>
  </g>
</svg>
