<svg xmlns="http://www.w3.org/2000/svg" fill-rule="evenodd" clip-rule="evenodd" image-rendering="optimizeQuality" shape-rendering="geometricPrecision" text-rendering="geometricPrecision" viewBox="0 0 24 24"><path fill="#537599" d="M12 0c6.63 0 12 5.37 12 12s-5.37 12-12 12S0 18.63 0 12 5.37 0 12 0z"/><path fill="#fff" d="M12.54 7.67h-2.07c-.62 0-.96.25-.97.4-.01.13.3.24.49.35.19.12.35.48.35.72v2.14c0 .2-.04.34-.21.48-.08.06-.17.08-.27.08-.08 0-.19-.02-.27-.12-.81-1.05-.81-1.18-1.94-3.29-.06-.1-.11-.21-.23-.29-.11-.08-.28-.14-.54-.14-.91 0-1.48.02-2.08.02-.56 0-.51.35-.43.5.68 1.42 1.37 2.78 2.16 4.15.93 1.61 1.78 2.58 3.21 3.27.33.16.93.33 1.62.33h1.47c.19 0 .51-.15.51-.35v-1.1c0-.32.31-.43.48-.51.21-.09.42.05.52.17.83.88.73.78 1.48 1.57.17.18.3.27.62.27h2.68c.14 0 .35-.22.39-.3.07-.11.21-.5-.02-.75-.76-.86-1.53-1.64-2.27-2.42-.06-.06-.1-.14-.1-.23-.01-.09.04-.17.1-.25.83-1.15 1.52-2.13 2.26-3.34.25-.4.21-.68.17-.77-.05-.11-.21-.27-.39-.27-1 0-1.43-.02-2.5-.02-.32 0-.6-.02-.77.36-.47 1.03-1.23 2.59-1.9 3.24-.12.12-.28.21-.42.21-.15 0-.3-.09-.32-.33-.02-1.11 0-2.06-.01-3.16 0-.33-.14-.42-.25-.49-.14-.1-.37-.13-.55-.13z"/></svg>