<svg xmlns="http://www.w3.org/2000/svg" fill-rule="evenodd" clip-rule="evenodd" image-rendering="optimizeQuality" shape-rendering="geometricPrecision" text-rendering="geometricPrecision" viewBox="0 0 24 24"><circle cx="12" cy="12" r="12" fill="#ca3737"/><path fill="#fff" d="M18.44 8.84c0-.06 0-.12-.06-.18v-.05c-.17-.52-.63-.87-1.2-.87h.11S15.05 7.4 12 7.4c-2.99 0-5.29.34-5.29.34h.11c-.57 0-1.03.35-1.2.87v.05c0 .06 0 .12-.06.18-.06.57-.23 1.78-.23 3.16 0 1.38.17 2.59.23 3.16 0 .06 0 .12.06.18v.05c.17.52.63.87 1.2.87h-.11s2.24.34 5.29.34c2.99 0 5.29-.34 5.29-.34h-.11c.57 0 1.03-.35 1.2-.87v-.05c0-.06 0-.12.06-.18.06-.57.23-1.78.23-3.16 0-1.38-.11-2.59-.23-3.16zm-4.49 3.45l-2.7 1.95c-.06.06-.11.06-.17.06-.06 0-.11 0-.17-.06-.12-.05-.18-.17-.18-.29v-3.9c0-.12.06-.24.18-.29.11-.06.23-.06.34 0l2.7 1.95c.06.06.12.18.12.29.06.11 0 .23-.12.29z"/></svg>